<svg xmlns="http://www.w3.org/2000/svg" xmlns:xlink="http://www.w3.org/1999/xlink" width="500" zoomAndPan="magnify" viewBox="0 0 375 374.999991" height="500" preserveAspectRatio="xMidYMid meet" version="1.0"><defs><clipPath id="c72d05de04"><path d="M 227 89.09375 L 248 89.09375 L 248 131 L 227 131 Z M 227 89.09375 " clip-rule="nonzero"/></clipPath></defs><path fill="#f4900c" d="M 39.769531 245.148438 L 50.171875 245.148438 C 55.894531 245.148438 60.574219 240.464844 60.574219 234.746094 C 60.574219 229.023438 55.894531 224.339844 50.171875 224.339844 L 39.769531 224.339844 C 34.046875 224.339844 29.363281 229.023438 29.363281 234.746094 C 29.363281 240.464844 34.046875 245.148438 39.769531 245.148438 " fill-opacity="1" fill-rule="nonzero"/><path fill="#292f33" d="M 268.648438 323.175781 C 268.648438 349.027344 289.613281 369.992188 315.464844 369.992188 C 341.316406 369.992188 362.28125 349.027344 362.28125 323.175781 C 362.28125 297.324219 341.316406 276.359375 315.464844 276.359375 C 289.613281 276.359375 268.648438 297.324219 268.648438 323.175781 M 18.960938 323.175781 C 18.960938 349.027344 39.925781 369.992188 65.777344 369.992188 C 91.628906 369.992188 112.59375 349.027344 112.59375 323.175781 C 112.59375 297.324219 91.628906 276.359375 65.777344 276.359375 C 39.925781 276.359375 18.960938 297.324219 18.960938 323.175781 " fill-opacity="1" fill-rule="nonzero"/><path fill="#99aab5" d="M 289.457031 323.175781 C 289.457031 337.542969 301.097656 349.183594 315.464844 349.183594 C 329.832031 349.183594 341.472656 337.542969 341.472656 323.175781 C 341.472656 308.808594 329.832031 297.167969 315.464844 297.167969 C 301.097656 297.167969 289.457031 308.808594 289.457031 323.175781 M 39.769531 323.175781 C 39.769531 337.542969 51.410156 349.183594 65.777344 349.183594 C 80.144531 349.183594 91.785156 337.542969 91.785156 323.175781 C 91.785156 308.808594 80.144531 297.167969 65.777344 297.167969 C 51.410156 297.167969 39.769531 308.808594 39.769531 323.175781 " fill-opacity="1" fill-rule="nonzero"/><path fill="#c67d87" d="M 311.78125 246 L 284.578125 173.289062 L 289.457031 161.917969 C 289.457031 161.917969 298.984375 162.003906 299.859375 151.515625 C 300.722656 141.039062 274.808594 119.484375 268.648438 120.304688 C 262.480469 121.136719 268.648438 141.113281 268.648438 141.113281 C 268.648438 141.113281 244.511719 146.90625 247.839844 161.917969 C 251.160156 176.941406 272.550781 252.304688 272.550781 252.304688 C 272.550781 252.304688 254.34375 261.410156 247.839844 276.359375 C 243.167969 287.097656 230.351562 286.949219 216.628906 286.761719 C 202.90625 286.597656 170.925781 286.691406 164.613281 265.957031 C 158.308594 245.242188 154.207031 234.746094 154.207031 234.746094 L 164.613281 224.339844 L 60.574219 203.535156 C 60.574219 203.535156 69.84375 224.152344 50.171875 234.746094 C 27.617188 246.90625 20.417969 262.511719 8.558594 286.761719 C 0.765625 302.722656 3.894531 306.5 18.960938 307.570312 C 39.15625 309.027344 65.152344 311.585938 79.199219 313.136719 C 91.652344 314.53125 102.960938 330.300781 122.519531 330.300781 C 142.078125 330.300781 227.097656 330.8125 247.839844 328.367188 C 284.210938 324.113281 297.339844 297.15625 351.878906 297.15625 C 373.433594 297.15625 362.90625 280.894531 351.585938 269.429688 C 339.007812 256.675781 312.042969 244.460938 311.78125 246 " fill-opacity="1" fill-rule="nonzero"/><path fill="#9d5862" d="M 143.804688 338.78125 L 175.015625 338.78125 C 186.460938 338.78125 195.824219 329.417969 195.824219 317.972656 C 195.824219 306.53125 186.460938 297.167969 175.015625 297.167969 L 143.804688 297.167969 C 132.359375 297.167969 122.996094 306.53125 122.996094 317.972656 C 122.996094 329.417969 132.359375 338.78125 143.804688 338.78125 " fill-opacity="1" fill-rule="nonzero"/><path fill="#9d5862" d="M 175.015625 338.78125 L 227.035156 338.78125 C 232.757812 338.78125 237.4375 334.097656 237.4375 328.378906 C 237.4375 322.65625 232.757812 317.972656 227.035156 317.972656 L 175.015625 317.972656 C 169.292969 317.972656 164.613281 322.65625 164.613281 328.378906 C 164.613281 334.097656 169.292969 338.78125 175.015625 338.78125 " fill-opacity="1" fill-rule="nonzero"/><path fill="#292f33" d="M 143.804688 224.339844 C 160.636719 224.339844 169.097656 227.523438 175.015625 213.9375 C 180.933594 200.351562 175.222656 193.128906 164.613281 193.128906 C 154 193.128906 105.019531 191.246094 81.382812 182.726562 C 57.746094 174.207031 49.621094 174.082031 50.171875 182.726562 C 50.722656 191.371094 60.574219 203.535156 60.574219 203.535156 C 60.574219 203.535156 73.621094 224.339844 143.804688 224.339844 M 227.035156 161.917969 L 260.855469 161.917969 C 266.578125 161.917969 271.257812 157.238281 271.257812 151.515625 C 271.257812 145.792969 266.578125 141.113281 260.855469 141.113281 L 227.035156 141.113281 C 221.3125 141.113281 216.628906 145.792969 216.628906 151.515625 C 216.628906 157.238281 221.3125 161.917969 227.035156 161.917969 " fill-opacity="1" fill-rule="nonzero"/><path fill="#f4900c" d="M 294.65625 161.917969 C 297.519531 161.917969 299.859375 159.578125 299.859375 156.71875 L 299.859375 146.3125 C 299.859375 143.453125 297.519531 141.113281 294.65625 141.113281 C 291.796875 141.113281 289.457031 143.453125 289.457031 146.3125 L 289.457031 156.71875 C 289.457031 159.578125 291.796875 161.917969 294.65625 161.917969 " fill-opacity="1" fill-rule="nonzero"/><g clip-path="url(#c72d05de04)"><path fill="#292f33" d="M 236.792969 130.707031 L 238.09375 130.707031 C 243.460938 130.707031 247.839844 126.316406 247.839844 120.960938 L 247.839844 98.839844 C 247.839844 93.484375 243.460938 89.09375 238.082031 89.09375 L 236.78125 89.09375 C 231.414062 89.09375 227.035156 93.484375 227.035156 98.839844 L 227.035156 120.960938 C 227.035156 126.316406 231.414062 130.707031 236.792969 130.707031 " fill-opacity="1" fill-rule="nonzero"/></g><path fill="#292f33" d="M 268.835938 152.203125 L 269.066406 151.972656 C 271.019531 150.015625 271.019531 146.800781 269.066406 144.847656 L 239.414062 115.1875 C 237.449219 113.230469 234.242188 113.230469 232.289062 115.1875 L 232.046875 115.414062 C 230.09375 117.382812 230.09375 120.585938 232.046875 122.542969 L 261.710938 152.203125 C 263.664062 154.15625 266.878906 154.15625 268.835938 152.203125 " fill-opacity="1" fill-rule="nonzero"/></svg>